<?xml version="1.0" encoding="utf-8"?>
<!-- Generator: Adobe Illustrator 21.1.0, SVG Export Plug-In . SVG Version: 6.00 Build 0)  -->
<svg version="1.1" id="Layer_1" xmlns="http://www.w3.org/2000/svg" xmlns:xlink="http://www.w3.org/1999/xlink" x="0px" y="0px"
	 viewBox="0 0 144 144" style="enable-background:new 0 0 144 144;" xml:space="preserve">
<style type="text/css">
	.st0{fill:#AF8F78;}
	.st1{fill:none;stroke:#AF8F78;stroke-width:2;stroke-miterlimit:10;}
</style>
<g>
	<path class="st0" d="M50.7,58.5c0-0.3,0.2-0.5,0.5-0.5h5.9c3.3,0,5.5,2.1,5.5,4.9c0,2.1-1.4,3.6-2.6,4.3c1.4,0.6,3.2,1.9,3.2,4.4
		c0,3-2.4,5.2-5.9,5.2h-6.1c-0.3,0-0.5-0.2-0.5-0.5V58.5z M57.5,75c2,0,3.4-1.5,3.4-3.4c0-1.9-1.7-3.3-3.8-3.3h-4.4V75H57.5z
		 M57.1,66.4c2.1,0,3.2-1.5,3.2-3.4c0-1.9-1.2-3.2-3.2-3.2h-4.4v6.6H57.1z"/>
	<path class="st0" d="M78.4,57.7c2.7,0,4.7,0.9,6.5,2.5c0.2,0.2,0.2,0.5,0,0.8l-0.7,0.7c-0.2,0.3-0.4,0.2-0.7,0
		c-1.4-1.2-3.3-2-5.1-2c-4.2,0-7.5,3.6-7.5,7.7c0,4.1,3.3,7.7,7.5,7.7c2.3,0,3.7-0.9,5.1-2c0.3-0.2,0.5-0.2,0.6-0.1l0.8,0.7
		c0.2,0.2,0.2,0.5,0,0.7c-1.8,1.8-4.1,2.6-6.5,2.6c-5.4,0-9.7-4.3-9.7-9.7C68.7,62,73.1,57.7,78.4,57.7z"/>
</g>
<circle class="st0" cx="95.8" cy="75.9" r="1.3"/>
<g>
	<path class="st0" d="M95.7,58.8c3.2,0,5.7,2.7,5.7,5.9c0,3.3-2.5,6-5.7,6c-3.2,0-5.7-2.7-5.7-6C90,61.6,92.5,58.8,95.7,58.8z
		 M95.7,68.9c2.1,0,3.7-1.8,3.7-4.2c0-2.2-1.6-4.1-3.7-4.1c-2.1,0-3.7,1.8-3.7,4.1C92,67.1,93.6,68.9,95.7,68.9z"/>
</g>
<circle class="st1" cx="75.1" cy="67.4" r="45.9"/>
</svg>
